<?xml version="1.0" encoding="UTF-8" standalone="no"?>
<!DOCTYPE svg PUBLIC "-//W3C//DTD SVG 1.1//EN" "http://www.w3.org/Graphics/SVG/1.1/DTD/svg11.dtd">
<svg width="100%" height="100%" viewBox="0 0 48 48" version="1.1" xmlns="http://www.w3.org/2000/svg" xmlns:xlink="http://www.w3.org/1999/xlink" xml:space="preserve" xmlns:serif="http://www.serif.com/" style="fill-rule:evenodd;clip-rule:evenodd;stroke-linejoin:round;stroke-miterlimit:2;">
    <path d="M48,5.217L48,42.783C48,45.662 45.662,48 42.783,48L5.217,48C2.338,48 0,45.662 0,42.783L0,5.217C0,2.338 2.338,0 5.217,0L42.783,0C45.662,0 48,2.338 48,5.217Z" style="fill:white;"/>
    <g transform="matrix(0.608925,0,0,0.608925,-14.4226,22.337)">
        <path d="M39.307,17.746L25.244,8.346L25.244,3.195L39.307,-6.107L39.307,-0.736L28.735,5.758L39.307,12.521L39.307,17.746Z" style="fill:rgb(99,102,241);fill-rule:nonzero;"/>
        <path d="M39.954,24.191L39.954,-18.778L48.035,-18.778C50.281,-18.778 52.031,-18.31 53.284,-17.374C54.537,-16.438 55.416,-15.099 55.921,-13.358C56.426,-11.616 56.678,-9.533 56.678,-7.108L56.702,11.764C56.702,14.661 56.413,17.025 55.836,18.857C55.258,20.688 54.322,22.034 53.028,22.897C51.734,23.76 50.013,24.191 47.864,24.191L39.954,24.191ZM44.983,20.114L47.571,20.114C48.483,20.114 49.24,19.914 49.842,19.516C50.444,19.117 50.896,18.372 51.197,17.282C51.498,16.191 51.648,14.613 51.648,12.545L51.648,-7.23C51.648,-9.932 51.331,-11.865 50.696,-13.028C50.062,-14.192 49.02,-14.774 47.571,-14.774L44.983,-14.774L44.983,20.114Z" style="fill-rule:nonzero;"/>
        <path d="M66.139,24.704C64.055,24.704 62.395,24.195 61.158,23.178C59.921,22.161 59.034,20.667 58.497,18.698C57.96,16.728 57.691,14.336 57.691,11.52L57.691,-6.375C57.691,-8.263 57.814,-9.993 58.058,-11.563C58.302,-13.134 58.737,-14.493 59.364,-15.641C59.99,-16.788 60.865,-17.675 61.988,-18.302C63.111,-18.928 64.552,-19.242 66.31,-19.242C67.986,-19.242 69.353,-18.945 70.411,-18.351C71.469,-17.756 72.291,-16.91 72.877,-15.811C73.463,-14.713 73.866,-13.411 74.086,-11.905C74.305,-10.4 74.415,-8.735 74.415,-6.913L74.415,-2.152L69.459,-2.152L69.459,-6.937C69.459,-9.606 69.268,-11.604 68.885,-12.931C68.503,-14.257 67.644,-14.92 66.31,-14.92C64.894,-14.92 63.946,-14.241 63.465,-12.882C62.985,-11.523 62.745,-9.549 62.745,-6.961L62.745,11.642C62.745,13.725 62.835,15.414 63.014,16.708C63.193,18.002 63.53,18.942 64.027,19.528C64.523,20.114 65.235,20.407 66.163,20.407C67.514,20.407 68.401,19.723 68.824,18.356C69.247,16.989 69.459,14.743 69.459,11.618L69.459,6.857L74.464,6.857L74.464,11.569C74.464,14.433 74.216,16.842 73.719,18.795C73.223,20.749 72.372,22.222 71.168,23.214C69.964,24.207 68.287,24.704 66.139,24.704Z" style="fill-rule:nonzero;"/>
        <path d="M73.329,24.191L84.047,-18.973L88.515,-18.973L77.773,24.191L73.329,24.191Z" style="fill:rgb(99,102,241);fill-rule:nonzero;"/>
        <path d="M86.892,17.746L86.892,12.375L97.463,5.905L86.892,-0.882L86.892,-6.107L100.954,3.268L100.954,8.419L86.892,17.746Z" style="fill:rgb(99,102,241);fill-rule:nonzero;"/>
    </g>
</svg>